<svg width="160" height="160" viewBox="0 0 160 160" fill="none" xmlns="http://www.w3.org/2000/svg">
<g clip-path="url(#clip0_1295_6372)">
<path fill-rule="evenodd" clip-rule="evenodd" d="M101.823 51.2178L106.948 51.3057L120.873 37.3804L121.548 31.4807C110.112 21.2712 95.3153 15.635 79.9855 15.6485C51.1357 15.6485 26.7858 35.2785 19.5781 61.8685C21.0983 60.8082 24.3479 61.6036 24.3479 61.6036L52.1729 57.0287C52.1729 57.0287 53.6029 54.6613 54.3277 54.7789C60.9065 47.5506 70.2291 43.4327 80.0023 43.4366C88.2526 43.4538 95.8524 46.3689 101.823 51.1914V51.2183H101.823V51.2178Z" fill="#EA4335"/>
<path fill-rule="evenodd" clip-rule="evenodd" d="M140.426 61.9035C137.194 49.9784 130.531 39.4486 121.539 31.4609L101.822 51.1784C109.722 57.5532 114.789 67.3083 114.789 78.2282V81.7082C124.381 81.7082 132.174 89.5183 132.174 99.0933C132.174 108.686 124.364 116.478 114.789 116.478H80.0191L76.5391 119.979V140.844L80.0191 144.306H114.789C139.744 144.271 159.964 124.051 160.002 99.0962C159.984 83.7089 152.252 70.0961 140.427 61.9063V61.9039L140.426 61.9035Z" fill="#4285F4"/>
<path fill-rule="evenodd" clip-rule="evenodd" d="M45.2152 144.35H79.9652V116.501H45.2152C42.7461 116.501 40.3062 115.971 38.0603 114.945L33.0429 116.483L19.1181 130.408L17.8984 135.108C25.7455 141.094 35.3431 144.335 45.2133 144.33L45.2157 144.35H45.2152Z" fill="#34A853"/>
<path fill-rule="evenodd" clip-rule="evenodd" d="M45.2125 53.8984C20.2579 53.9584 0.0350399 74.1784 0 99.1336C0 113.816 7.03294 126.871 17.915 135.141L38.0745 114.981C31.8422 112.17 27.8327 105.971 27.827 99.1336C27.827 89.5413 35.637 81.7485 45.212 81.7485C52.2618 81.7485 58.3223 85.9984 61.0621 91.9989L81.222 71.8389C72.9545 60.9563 59.8971 53.9239 45.2149 53.9239L45.2125 53.8984Z" fill="#FBBC05"/>
</g>
<defs>
<clipPath id="clip0_1295_6372">
<rect width="160" height="160" fill="white"/>
</clipPath>
</defs>
</svg>
